<?xml version="1.0" encoding="UTF-8" standalone="no"?>
<!-- Generator: Adobe Illustrator 19.0.0, SVG Export Plug-In . SVG Version: 6.00 Build 0)  -->

<svg
   xmlns:dc="http://purl.org/dc/elements/1.1/"
   xmlns:cc="http://creativecommons.org/ns#"
   xmlns:rdf="http://www.w3.org/1999/02/22-rdf-syntax-ns#"
   xmlns:svg="http://www.w3.org/2000/svg"
   xmlns="http://www.w3.org/2000/svg"
   xmlns:sodipodi="http://sodipodi.sourceforge.net/DTD/sodipodi-0.dtd"
   xmlns:inkscape="http://www.inkscape.org/namespaces/inkscape"
   version="1.1"
   id="Layer_1"
   x="0px"
   y="0px"
   viewBox="0 0 512.001 512.001"
   style="enable-background:new 0 0 512.001 512.001;"
   xml:space="preserve"
   inkscape:version="0.91 r13725"
   sodipodi:docname="rna.svg"><metadata
     id="metadata43"><rdf:RDF><cc:Work
         rdf:about=""><dc:format>image/svg+xml</dc:format><dc:type
           rdf:resource="http://purl.org/dc/dcmitype/StillImage" /></cc:Work></rdf:RDF></metadata><defs
     id="defs41" /><sodipodi:namedview
     pagecolor="#ffffff"
     bordercolor="#666666"
     borderopacity="1"
     objecttolerance="10"
     gridtolerance="10"
     guidetolerance="10"
     inkscape:pageopacity="0"
     inkscape:pageshadow="2"
     inkscape:window-width="827"
     inkscape:window-height="724"
     id="namedview39"
     showgrid="false"
     inkscape:zoom="0.62317104"
     inkscape:cx="306.98364"
     inkscape:cy="314.9523"
     inkscape:window-x="20"
     inkscape:window-y="66"
     inkscape:window-maximized="0"
     inkscape:current-layer="g5"
     inkscape:snap-others="true" /><g
     id="g3"
     transform="matrix(-0.70696868,0.70696868,-0.70710678,-0.70710678,617.95635,256.03785)"><g
       id="g5"><path
         mask="none"
         d="m -8.6190156,311.65129 c -0.002,10.87425 8.81552099,19.69052 19.6933056,19.68945 49.033449,-0.004 91.95086,-37.04732 122.23871,-75.51171 76.07351,96.45867 162.36776,104.11019 244.49306,-0.0254 30.22308,38.38567 73.18436,75.49254 122.22701,75.48633 10.87919,-0.004 19.69543,-8.8184 19.6972,-19.69336 0.002,-10.87212 -8.81357,-19.68909 -19.69134,-19.68944 -7.45647,7.3e-4 -14.82364,-1.50591 -21.9496,-4.03711 l 0.006,-68.37501 -39.38854,0 -0.004,43.86914 c -13.8135,-12.0798 -26.60418,-26.84351 -37.12834,-41.48241 0.57245,-0.79611 1.17663,-1.5907 1.76205,-2.38673 l -51.06661,0 c 0.5861,0.79717 1.19112,1.59374 1.76401,2.39063 -10.58007,14.71661 -23.42159,29.50302 -37.1342,41.49218 l 0.004,-43.88281 -39.38855,0 -0.008,68.39258 c -14.75504,5.24483 -28.38148,5.51587 -43.89921,0.004 l 0.006,-68.39649 -39.3866,0 -0.004,43.89258 C 180.40489,251.30578 167.619,236.5426 157.09695,221.90724 c 0.57833,-0.8043 1.18805,-1.60789 1.77964,-2.41211 l -51.10177,0 c 0.6157,0.83722 1.24897,1.67498 1.84997,2.51172 -8.58983,12.05088 -21.663731,27.86462 -37.204541,41.41016 l 0.004,-43.92188 -39.38855,0 -0.008,68.41406 c -7.212738,2.56513 -14.570225,4.04936 -21.949606,4.05079 -10.87565361,3.5e-4 -19.6954366,8.81645 -19.6972066,19.6914 z"
         id="path7"
         inkscape:connector-curvature="0" /></g></g><g
     id="g9" /><g
     id="g11" /><g
     id="g13" /><g
     id="g15" /><g
     id="g17" /><g
     id="g19" /><g
     id="g21" /><g
     id="g23" /><g
     id="g25" /><g
     id="g27" /><g
     id="g29" /><g
     id="g31" /><g
     id="g33" /><g
     id="g35" /><g
     id="g37" /></svg>